<svg width="70" height="70" viewBox="0 0 70 70" fill="none" xmlns="http://www.w3.org/2000/svg">
<g opacity="0.6">
<mask id="mask0_773_680" style="mask-type:luminance" maskUnits="userSpaceOnUse" x="16" y="7" width="38" height="56">
<path d="M16.6797 7.65625H53.1453V62.3438H16.6797V7.65625Z" fill="white"/>
</mask>
<g mask="url(#mask0_773_680)">
<path d="M25.7982 62.3438C30.8295 62.3438 34.9127 58.2605 34.9127 53.2293V44.1145H25.7982C20.767 44.1145 16.6835 48.198 16.6835 53.2293C16.6835 58.2605 20.767 62.3438 25.7982 62.3438Z" fill="#0ACF83"/>
<path d="M16.6835 35C16.6835 29.9687 20.767 25.8855 25.7982 25.8855H34.9127V44.1145H25.7982C20.767 44.1145 16.6835 40.0312 16.6835 35Z" fill="#A259FF"/>
<path d="M16.6835 16.7707C16.6835 11.7395 20.767 7.65625 25.7982 7.65625H34.9127V25.8855H25.7982C20.767 25.8855 16.6835 21.802 16.6835 16.7707Z" fill="#F24E1E"/>
<path d="M34.9125 7.65625H44.027C49.0582 7.65625 53.1417 11.7395 53.1417 16.7707C53.1417 21.802 49.0582 25.8855 44.027 25.8855H34.9125V7.65625Z" fill="#FF7262"/>
<path d="M53.1417 35C53.1417 40.0312 49.0582 44.1145 44.027 44.1145C38.9957 44.1145 34.9125 40.0312 34.9125 35C34.9125 29.9687 38.9957 25.8855 44.027 25.8855C49.0582 25.8855 53.1417 29.9687 53.1417 35Z" fill="#1ABCFE"/>
</g>
</g>
</svg>
